<?xml version="1.0" standalone="no"?><!DOCTYPE svg PUBLIC "-//W3C//DTD SVG 1.1//EN" "http://www.w3.org/Graphics/SVG/1.1/DTD/svg11.dtd"><svg t="1744976996273" class="icon" viewBox="0 0 1024 1024" version="1.1" xmlns="http://www.w3.org/2000/svg" p-id="25151" xmlns:xlink="http://www.w3.org/1999/xlink" width="200" height="200"><path d="M0 384a213.333333 213.333333 0 0 1 213.333333-213.333333h359.253334a213.333333 213.333333 0 0 1 212.992 200.533333l175.786666-93.056A42.666667 42.666667 0 0 1 1024 315.818667v498.176a42.666667 42.666667 0 0 1-62.634667 37.717333l-177.834666-94.208A213.376 213.376 0 0 1 572.629333 938.666667H213.333333a213.333333 213.333333 0 0 1-213.333333-213.333334v-75.861333a42.666667 42.666667 0 1 1 85.333333 0V725.333333a128 128 0 0 0 128 128h359.253334a128 128 0 0 0 128-128v-37.418666a42.666667 42.666667 0 0 1 62.677333-37.717334L938.666667 743.125333V386.730667l-175.402667 92.885333a42.666667 42.666667 0 0 1-62.634667-37.717333V384a128 128 0 0 0-128-128H213.333333a128 128 0 0 0-128 128v90.581333a42.666667 42.666667 0 0 1-85.333333 0V384z" fill="#1296db" p-id="25152"></path><path d="M150.954667 440.874667a118.528 118.528 0 0 1 118.528-118.485334h112.512a118.528 118.528 0 0 1 0 237.013334H269.482667a118.528 118.528 0 0 1-118.528-118.528z m118.528-33.152a33.194667 33.194667 0 1 0 0 66.346666h112.512a33.194667 33.194667 0 0 0 0-66.346666H269.482667z" fill="#1296db" p-id="25153"></path></svg>