<?xml version="1.0" standalone="no"?><!DOCTYPE svg PUBLIC "-//W3C//DTD SVG 1.1//EN" "http://www.w3.org/Graphics/SVG/1.1/DTD/svg11.dtd"><svg t="1744963941098" class="icon" viewBox="0 0 1024 1024" version="1.1" xmlns="http://www.w3.org/2000/svg" p-id="4312" xmlns:xlink="http://www.w3.org/1999/xlink" width="200" height="200"><path d="M832 985.6c0 21.1456-21.6064 38.4-47.9744 38.4H240.0256c-26.4192 0-48.0256-17.2544-48.0256-38.4s21.6064-38.4 48.0256-38.4a184.32 184.32 0 0 0 69.9904-19.2 145.3568 145.3568 0 0 0 41.984-32h320a145.3568 145.3568 0 0 0 41.984 32 184.32 184.32 0 0 0 70.0416 19.2c26.368 0 47.9744 17.3056 47.9744 38.4zM1024 76.8v665.6a76.8 76.8 0 0 1-76.8 76.8H76.8a76.8 76.8 0 0 1-76.8-76.8V76.8A76.8 76.8 0 0 1 76.8 0h870.4a76.8 76.8 0 0 1 76.8 76.8z m-384 665.6a25.6 25.6 0 0 0-25.6-25.6H409.6a25.6 25.6 0 0 0 0 51.2h204.8a25.6 25.6 0 0 0 25.6-25.6z m307.2-604.16a61.44 61.44 0 0 0-61.44-61.44H138.24a61.44 61.44 0 0 0-61.44 61.44v465.92a61.44 61.44 0 0 0 61.44 61.44h747.52a61.44 61.44 0 0 0 61.44-61.44z" fill="#1296db" p-id="4313"></path><path d="M729.6 371.2A217.6 217.6 0 1 1 512 153.6v217.6z m-179.2-109.0048l114.432-114.432a211.7632 211.7632 0 0 0-31.0784-15.9744L550.4 215.04zM621.0048 332.8l114.432-114.432a211.7632 211.7632 0 0 1 15.9744 31.0784L668.0576 332.8zM550.4 168.0896V115.2a217.3952 217.3952 0 0 1 47.5648 5.12zM762.88 285.2352a217.3952 217.3952 0 0 1 5.12 47.5648h-52.8896zM573.952 332.8h-23.552v-23.552l141.6192-141.568a221.3888 221.3888 0 0 1 23.5008 23.5008z" fill="#1296db" p-id="4314"></path></svg>